<svg version="1" xmlns="http://www.w3.org/2000/svg" width="533.333" height="533.333" viewBox="0 0 400.000000 400.000000"><path d="M23.8 47.7c-1.4.9-3.1 2.7-3.7 4-.8 1.7-1.1 35.6-1.1 110.9v108.6l2.9 2.9c2.2 2.1 3.9 2.9 6.6 2.9 5.2 0 8-2.3 10.6-8.8 1.2-3.1 2.5-6.2 2.9-6.7.4-.6 1.5-3.3 2.5-6 1-2.8 2.6-6.8 3.5-9 2.8-6.5 4-9.4 8.5-20.5 2.4-5.8 5.8-14.3 7.8-19 1.9-4.7 10.1-24.7 18.1-44.5 8.1-19.8 15.3-37.4 16.1-39 .7-1.7 2.3-5.5 3.5-8.5 1.2-3 2.7-6.9 3.5-8.5.7-1.7 2.5-5.9 3.9-9.5 1.5-3.6 3.1-7.4 3.6-8.5.5-1.1 3.5-8.7 6.8-16.9 5.3-13.3 5.8-15.2 4.9-18.2-2.2-7.2.4-6.9-51.6-7.1-41.8-.2-46.9-.1-49.3 1.4zM219.9 48.7c-.7 1.6-1.5 3.7-2 4.8-2.6 6.2-17.5 41.7-37.9 90.5-25 59.8-27.2 65.2-30.2 71.9-1.1 2.4-2.8 6.7-3.9 9.5s-2.6 6.4-3.4 8.1c-.7 1.6-3.7 8.6-6.5 15.5-2.9 6.9-8 19.2-11.5 27.5-9.7 23.1-22.3 53.1-26.2 62.5-1.9 4.7-4.1 9.8-4.8 11.5l-1.4 3 43.1.3c23.8.1 43.5-.1 43.8-.5.4-.5 7.3-16.8 15.4-36.3 8.1-19.5 15.6-37.3 16.6-39.5 1-2.2 3.5-8.1 5.5-13 2-5 4.3-10.4 5-12 .7-1.7 4.8-11.3 9-21.5s9-21.7 10.7-25.5c3.8-9 4.6-11 5.7-13.8.5-1.2 1.8-4.2 2.9-6.7 1.1-2.5 5.9-14 10.7-25.5 8.5-20.5 11.2-26.8 14.1-33.2.8-1.7 1.4-3.5 1.4-4 0-.6.6-2.3 1.4-3.9 1.5-3 13.2-30.4 19.1-44.9 1.8-4.4 5.1-12.4 7.3-17.8l4.1-9.7H221l-1.1 2.7zM366.3 123.9c-1.5 1-3.3 2.9-4 4.2-.7 1.3-8.9 21.3-18.4 44.4-19 46.7-26.5 65-27.9 68-.5 1.1-2 4.9-3.4 8.5-2.3 6-5.5 13.6-7.6 18.5-6.5 14.5-30.3 74.7-30.3 76.7 0 3.4 2.7 7.6 5.8 8.8 1.3.5 22.5.9 47 1 48.6 0 49.9-.1 52.4-5.6.8-1.8 1.1-32 1.1-110.9V129l-2.7-2.9c-3.5-3.7-8.1-4.5-12-2.2z"/></svg>