<svg version="1" xmlns="http://www.w3.org/2000/svg" width="1333.333" height="1333.333" viewBox="0 0 1000.000000 1000.000000"><path d="M466.5 35.6c-41.1 4-65.4 8.4-98.1 17.9-94.6 27.5-180.5 87.2-240.4 167C77.6 287.6 47.8 362.3 37.3 448c-2.6 20.8-2.6 83.2 0 104C50.6 659.9 95.9 753.9 171 829s169.1 120.4 277 133.7c20.8 2.6 83.2 2.6 104 0 107.9-13.3 201.9-58.6 277-133.7s120.4-169.1 133.7-277c2.6-20.8 2.6-83.2 0-104-13.3-107.9-58.6-201.9-133.7-277C754.1 96.2 659.9 50.6 553 37.4c-12.8-1.5-75.4-2.9-86.5-1.8zM532 79.4c64.4 10 119.7 44.9 153.5 96.9 25.2 38.8 36.5 90.9 29 133.8-9.2 52.7-42.5 106.1-89 143-38 30.2-82.7 46.9-125.8 46.9-36.8 0-76.7 11.6-108.1 31.4-34.7 22-64.3 55.4-81.9 92.6-13.6 28.9-19.5 53.8-20.4 85.5-.5 16.3-.2 20.7 1.6 31 6.8 39.2 29 80.6 61 113.7 36 37.3 77.2 59.6 123.6 67.2 6.8 1.1-17.9-.6-28.8-2-110.6-14-209.9-70.5-279.8-158.9C81.3 652.1 54.8 504.3 97.1 371.4c12.8-40.1 33.5-81.6 58.3-116.4 30-42.2 71.1-81.6 114.1-109.5 61.4-39.7 129-62.2 203-67.5 16.2-1.2 47.9-.4 59.5 1.4zm-15.4 569.2c22.6 5 42.1 22.9 50 45.9 3.6 10.6 4.4 26.7 1.9 38-8.3 37.3-45.8 61.1-83.9 53-19.8-4.2-37.9-18.2-47.1-36.7-6-12-7.9-21.1-7.3-35.1.6-13.9 4-24.9 11-35.3 16.8-25.2 45.4-36.5 75.4-29.8z"/><path d="M495 209.7c-18.6 1.7-35.1 9.3-47.3 21.7-7.6 7.7-12.6 15.5-16.4 25.6-15.4 41 7.1 85.2 49.4 97.2 10.9 3.1 27.7 3.1 38.6 0 35.5-10.1 58.5-44.2 53.7-79.9-4.8-35.9-32.5-61.9-69-64.6-3-.2-7.1-.2-9 0z"/></svg>